<?xml version="1.0" encoding="UTF-8"?>
<!DOCTYPE svg PUBLIC "-//W3C//DTD SVG 1.1//EN" "http://www.w3.org/Graphics/SVG/1.1/DTD/svg11.dtd">
<!-- Creator: CorelDRAW -->
<svg xmlns="http://www.w3.org/2000/svg" xml:space="preserve" width="131.689mm" height="39.2534mm" version="1.1" style="shape-rendering:geometricPrecision; text-rendering:geometricPrecision; image-rendering:optimizeQuality; fill-rule:evenodd; clip-rule:evenodd"
viewBox="0 0 3152.36 939.65"
 xmlns:xlink="http://www.w3.org/1999/xlink"
 xmlns:xodm="http://www.corel.com/coreldraw/odm/2003">
 <defs>
  <style type="text/css">
   <![CDATA[
    .fil1 {fill:#FF6200}
    .fil2 {fill:white}
    .fil3 {fill:#9BB3D1;fill-rule:nonzero}
    .fil0 {fill:white;fill-rule:nonzero}
   ]]>
  </style>
 </defs>
 <g id="Capa_x0020_1">
  <metadata id="CorelCorpID_0Corel-Layer"/>
  <path class="fil0" d="M1099.48 648.07l62.64 0 0 -103.38 55.51 -57.04 121.71 160.42 75.88 0 -154.82 -203.2 148.2 -153.29 -76.9 0 -169.58 179.26 0 -179.26 -62.64 0 0 356.48zm701.44 5.6c93.2,0 153.29,-53.47 153.29,-159.91l0 -202.18 -62.64 0 0 205.23c0,65.69 -34.12,99.3 -89.63,99.3 -56.02,0 -90.14,-35.65 -90.14,-101.85l0 -202.69 -62.64 0 0 205.23c0,103.38 59.07,156.85 151.76,156.85zm433.06 -5.6l165 0c79.45,0 131.9,-34.12 131.9,-97.78l0 -1.02c0,-48.38 -29.03,-72.31 -70.79,-86.57 26.48,-13.75 50.93,-36.67 50.93,-79.45l0 -1.02c0,-23.94 -8.15,-43.29 -23.93,-59.07 -20.37,-20.37 -52.46,-31.57 -93.2,-31.57l-159.91 0 0 356.48zm61.62 -206.25l0 -94.72 90.14 0c40.23,0 62.64,17.32 62.64,45.33l0 1.02c0,32.59 -26.99,48.38 -67.22,48.38l-85.55 0zm0 150.74l0 -97.78 99.3 0c49.4,0 73.33,17.82 73.33,47.87l0 1.02c0,32.08 -25.97,48.89 -68.75,48.89l-103.89 0zm669.86 61.62c109.49,0 186.9,-84.03 186.9,-184.35l0 -1.02c0,-100.32 -76.39,-183.33 -185.88,-183.33 -109.49,0 -186.9,84.03 -186.9,184.35l0 1.02c0,100.32 76.39,183.33 185.88,183.33zm1.02 -57.55c-70.79,0 -121.21,-57.55 -121.21,-126.81l0 -1.02c0,-69.26 49.4,-125.79 120.19,-125.79 70.79,0 121.2,57.54 121.2,126.8l0 1.02c0,69.26 -49.4,125.79 -120.19,125.79z"/>
  <g id="_2443027899728">
   <polygon class="fil1" points="-0,721.17 218.55,721.17 218.55,939.65 -0,939.65 "/>
   <polygon class="fil2" points="-0,681.71 218.55,681.71 218.55,1.77 -0,1.77 "/>
   <polygon class="fil2" points="218.55,453.22 455.32,453.22 855.8,0 605.94,0 "/>
   <polygon class="fil2" points="333.76,590.8 455.32,453.22 881.88,939.65 625.86,939.65 "/>
  </g>
  <g id="_2443027900352">
   <path class="fil3" d="M1410.78 821.44c-0.39,-0.75 -0.55,-1.6 -0.55,-2.48 0,-1.53 0.59,-2.97 1.79,-4.31 1.21,-1.34 2.77,-2.02 4.7,-2.02 1.2,0.06 2.35,0.42 3.42,1.08 1.08,0.62 1.89,1.57 2.38,2.87l39.86 99.94 39.86 -99.94c0.49,-1.3 1.27,-2.25 2.35,-2.93 1.04,-0.65 2.15,-1.01 3.39,-1.01 1.96,0 3.52,0.65 4.66,1.99 1.14,1.31 1.73,2.71 1.73,4.24 0,0.88 -0.2,1.76 -0.59,2.58l-45.27 113.34c-0.65,1.5 -1.37,2.67 -2.22,3.42 -0.82,0.75 -1.89,1.24 -3.23,1.44l-1.63 0c-2.25,-0.33 -3.88,-1.63 -4.96,-3.91l-45.7 -114.29zm128.18 4.11c0,-2.15 0.72,-3.98 2.18,-5.45 1.47,-1.47 3.3,-2.18 5.45,-2.18 2.18,0 4.01,0.72 5.51,2.18 1.5,1.47 2.25,3.3 2.25,5.45 0,2.09 -0.75,3.88 -2.25,5.38 -1.5,1.5 -3.33,2.25 -5.51,2.25 -2.15,0 -3.98,-0.75 -5.45,-2.25 -1.47,-1.5 -2.18,-3.29 -2.18,-5.38zm1.17 27.1c0,-1.83 0.62,-3.39 1.89,-4.63 1.27,-1.24 2.81,-1.86 4.57,-1.86 1.82,0 3.33,0.62 4.5,1.86 1.18,1.24 1.76,2.81 1.76,4.63l0 79.81c0,1.76 -0.62,3.29 -1.86,4.53 -1.24,1.24 -2.71,1.86 -4.4,1.86 -1.76,0 -3.3,-0.62 -4.57,-1.86 -1.27,-1.24 -1.89,-2.77 -1.89,-4.53l0 -79.81zm38.51 2.77c-0.46,-0.88 -0.69,-1.8 -0.69,-2.74 0,-1.6 0.59,-3.06 1.76,-4.37 1.17,-1.3 2.77,-1.96 4.73,-1.96 1.21,0 2.35,0.33 3.36,1.01 1.01,0.65 1.8,1.63 2.38,2.91l27.43 67.09 27.33 -67.09c0.49,-1.28 1.27,-2.25 2.35,-2.91 1.04,-0.68 2.15,-1.01 3.39,-1.01 1.89,0 3.46,0.65 4.67,1.96 1.21,1.31 1.82,2.77 1.82,4.37 0,0.88 -0.19,1.8 -0.59,2.74l-33.14 79.72c-0.72,1.14 -1.47,2.08 -2.31,2.8 -0.82,0.75 -2.03,1.11 -3.62,1.11 -1.27,0 -2.45,-0.36 -3.49,-1.11 -1.04,-0.72 -1.82,-1.66 -2.35,-2.8l-33.04 -79.72zm106.68 43.51c0.49,3.98 1.69,7.7 3.56,11.16 1.89,3.46 4.3,6.46 7.24,9 2.9,2.58 6.23,4.57 9.98,6.03 3.72,1.47 7.66,2.19 11.81,2.19 1.89,0 3.59,-0.06 5.09,-0.23 1.5,-0.16 2.9,-0.42 4.21,-0.78 1.31,-0.36 2.58,-0.82 3.82,-1.37 1.24,-0.59 2.54,-1.24 3.88,-2.02 0.72,-0.42 1.4,-0.75 2.05,-0.91 0.68,-0.16 1.31,-0.23 1.86,-0.23 1.8,0 3.26,0.72 4.44,2.09 1.17,1.4 1.8,2.93 1.8,4.6 0,0.98 -0.26,1.92 -0.72,2.87 -0.49,0.91 -1.27,1.7 -2.35,2.35 -1.66,0.95 -3.33,1.83 -5.02,2.61 -1.69,0.75 -3.49,1.37 -5.38,1.86 -1.92,0.49 -4.01,0.85 -6.23,1.11 -2.22,0.26 -4.7,0.39 -7.44,0.39 -6.46,0 -12.49,-1.24 -18.17,-3.69 -5.68,-2.45 -10.63,-5.77 -14.88,-9.98 -4.24,-4.21 -7.56,-9.13 -10.01,-14.81 -2.45,-5.68 -3.69,-11.71 -3.69,-18.17 0,-6.43 1.24,-12.46 3.69,-18.14 2.45,-5.67 5.77,-10.63 10.01,-14.87 4.24,-4.24 9.2,-7.56 14.88,-10.01 5.67,-2.45 11.71,-3.69 18.17,-3.69 6.36,0 12.36,1.24 18.04,3.69 5.68,2.45 10.63,5.77 14.88,10.01 4.24,4.21 7.6,9.13 10.08,14.78 2.48,5.64 3.75,11.68 3.82,18.04 0,1.73 -0.56,3.2 -1.73,4.37 -1.14,1.18 -2.64,1.76 -4.47,1.76l-73.19 0zm66.41 -10.76c-0.52,-4.2 -1.73,-8.09 -3.65,-11.67 -1.89,-3.59 -4.34,-6.72 -7.34,-9.33 -3,-2.64 -6.43,-4.73 -10.27,-6.26 -3.85,-1.53 -7.99,-2.28 -12.39,-2.28 -4.37,0 -8.51,0.78 -12.36,2.35 -3.85,1.53 -7.24,3.66 -10.18,6.33 -2.93,2.67 -5.32,5.8 -7.17,9.39 -1.83,3.59 -3,7.4 -3.43,11.48l66.8 0z"/>
   <path class="fil3" d="M1918.9 939.45c-6.42,0 -12.46,-1.21 -18.1,-3.59 -5.64,-2.38 -10.54,-5.64 -14.74,-9.75 -4.17,-4.14 -7.5,-9 -9.95,-14.55 -2.45,-5.58 -3.66,-11.55 -3.66,-17.97 0,-6.49 1.18,-12.59 3.55,-18.3 2.38,-5.74 5.64,-10.73 9.75,-14.97 4.14,-4.27 9.04,-7.63 14.71,-10.11 5.68,-2.48 11.81,-3.72 18.43,-3.72 6,0 11.78,1.05 17.32,3.1 5.54,2.09 10.24,5.09 14.12,9.07 1.53,1.63 2.31,3.42 2.31,5.32 0,1.04 -0.23,1.92 -0.68,2.67 -0.45,0.78 -1.01,1.44 -1.66,1.99 -0.69,0.52 -1.37,0.91 -2.12,1.18 -0.72,0.26 -1.37,0.39 -1.96,0.39 -0.75,0 -1.57,-0.23 -2.42,-0.62 -0.88,-0.43 -1.76,-0.95 -2.64,-1.6 -0.88,-0.62 -1.79,-1.3 -2.67,-1.99 -0.88,-0.68 -1.76,-1.3 -2.58,-1.82 -2.94,-1.83 -5.87,-3.13 -8.81,-3.91 -2.94,-0.75 -6.03,-1.11 -9.36,-1.04 -4.5,0.06 -8.74,1.01 -12.69,2.87 -3.98,1.86 -7.4,4.34 -10.34,7.44 -2.94,3.1 -5.22,6.65 -6.88,10.66 -1.66,4.01 -2.48,8.25 -2.48,12.66 0,4.47 0.82,8.74 2.45,12.82 1.63,4.08 3.88,7.7 6.82,10.83 2.94,3.13 6.43,5.61 10.47,7.47 4.04,1.86 8.48,2.77 13.34,2.77 2.28,0 4.44,-0.2 6.49,-0.59 2.03,-0.36 4.01,-0.98 5.97,-1.79 1.96,-0.85 3.91,-1.89 5.94,-3.16 1.99,-1.27 4.11,-2.77 6.33,-4.5 0.52,-0.23 1.04,-0.45 1.6,-0.62 0.52,-0.16 1.07,-0.23 1.57,-0.23 0.65,0 1.34,0.13 2.06,0.42 0.75,0.29 1.43,0.72 2.05,1.24 0.65,0.56 1.18,1.21 1.57,1.96 0.42,0.78 0.65,1.63 0.65,2.58 0,1.99 -0.78,3.75 -2.31,5.25 -3.88,3.98 -8.58,6.98 -14.12,9.07 -5.54,2.06 -11.32,3.1 -17.32,3.1zm67.02 -46.44c0,4.6 0.88,8.97 2.67,13.08 1.79,4.14 4.21,7.73 7.27,10.83 3.07,3.1 6.65,5.54 10.76,7.34 4.11,1.79 8.51,2.67 13.24,2.67 4.79,0 9.23,-0.88 13.41,-2.67 4.14,-1.8 7.73,-4.24 10.73,-7.34 3.03,-3.1 5.44,-6.69 7.17,-10.83 1.76,-4.11 2.64,-8.48 2.64,-13.08 0,-4.63 -0.88,-9.07 -2.64,-13.21 -1.73,-4.14 -4.14,-7.76 -7.17,-10.83 -3,-3.07 -6.59,-5.48 -10.73,-7.27 -4.18,-1.79 -8.61,-2.67 -13.41,-2.67 -4.73,0 -9.13,0.88 -13.24,2.67 -4.11,1.79 -7.7,4.21 -10.76,7.27 -3.06,3.06 -5.48,6.69 -7.27,10.83 -1.79,4.14 -2.67,8.58 -2.67,13.21zm-12.72 0.1c0,-6.49 1.24,-12.59 3.68,-18.3 2.45,-5.68 5.8,-10.63 10.04,-14.84 4.24,-4.21 9.17,-7.53 14.81,-9.98 5.64,-2.45 11.71,-3.69 18.13,-3.69 6.49,0 12.59,1.24 18.26,3.69 5.68,2.45 10.64,5.77 14.84,10.01 4.21,4.24 7.5,9.2 9.95,14.87 2.41,5.68 3.62,11.74 3.62,18.23 0,6.46 -1.21,12.49 -3.62,18.1 -2.44,5.64 -5.74,10.57 -9.95,14.78 -4.21,4.21 -9.16,7.53 -14.84,9.98 -5.67,2.45 -11.77,3.69 -18.26,3.69 -6.42,0 -12.49,-1.24 -18.13,-3.69 -5.64,-2.45 -10.57,-5.77 -14.81,-9.98 -4.24,-4.21 -7.6,-9.13 -10.04,-14.78 -2.45,-5.61 -3.68,-11.64 -3.68,-18.1zm115.91 -2.02c0,-6.17 1.11,-11.97 3.3,-17.42 2.22,-5.45 5.25,-10.18 9.13,-14.22 3.88,-4.05 8.48,-7.24 13.77,-9.62 5.28,-2.35 11.02,-3.52 17.19,-3.52 6.2,0 11.9,1.18 17.16,3.49 5.29,2.31 9.82,5.51 13.67,9.56 3.88,4.05 6.88,8.77 9.04,14.22 2.18,5.45 3.26,11.25 3.26,17.45l0 41.16c0,1.83 -0.59,3.36 -1.76,4.53 -1.18,1.18 -2.71,1.76 -4.53,1.76 -1.8,0 -3.33,-0.59 -4.57,-1.76 -1.24,-1.17 -1.86,-2.7 -1.86,-4.56l0 -40.77c0,-4.47 -0.75,-8.68 -2.25,-12.59 -1.5,-3.91 -3.59,-7.34 -6.33,-10.27 -2.71,-2.93 -5.9,-5.25 -9.65,-6.95 -3.72,-1.69 -7.8,-2.54 -12.2,-2.54 -4.4,0 -8.48,0.81 -12.2,2.48 -3.75,1.66 -6.98,3.95 -9.72,6.82 -2.74,2.87 -4.89,6.26 -6.42,10.18 -1.53,3.95 -2.28,8.12 -2.28,12.59l0 41.06c0,1.86 -0.55,3.39 -1.7,4.56 -1.14,1.18 -2.64,1.76 -4.47,1.76 -1.73,0 -3.23,-0.59 -4.57,-1.76 -1.34,-1.17 -1.99,-2.7 -1.99,-4.53l0 -41.1zm125.63 7.86c0.49,3.98 1.7,7.7 3.56,11.16 1.89,3.46 4.31,6.46 7.24,9 2.9,2.58 6.23,4.57 9.98,6.03 3.72,1.47 7.66,2.19 11.8,2.19 1.89,0 3.59,-0.06 5.09,-0.23 1.5,-0.16 2.9,-0.42 4.21,-0.78 1.3,-0.36 2.58,-0.82 3.82,-1.37 1.24,-0.59 2.54,-1.24 3.88,-2.02 0.72,-0.42 1.4,-0.75 2.06,-0.91 0.68,-0.16 1.3,-0.23 1.86,-0.23 1.8,0 3.26,0.72 4.44,2.09 1.18,1.4 1.8,2.93 1.8,4.6 0,0.98 -0.26,1.92 -0.72,2.87 -0.49,0.91 -1.27,1.7 -2.35,2.35 -1.66,0.95 -3.33,1.83 -5.02,2.61 -1.7,0.75 -3.49,1.37 -5.38,1.86 -1.92,0.49 -4.01,0.85 -6.23,1.11 -2.22,0.26 -4.7,0.39 -7.44,0.39 -6.46,0 -12.49,-1.24 -18.16,-3.69 -5.68,-2.45 -10.63,-5.77 -14.88,-9.98 -4.24,-4.21 -7.57,-9.13 -10.01,-14.81 -2.45,-5.68 -3.69,-11.71 -3.69,-18.17 0,-6.43 1.24,-12.46 3.69,-18.14 2.45,-5.67 5.77,-10.63 10.01,-14.87 4.24,-4.24 9.2,-7.56 14.88,-10.01 5.67,-2.45 11.71,-3.69 18.16,-3.69 6.36,0 12.36,1.24 18.04,3.69 5.68,2.45 10.63,5.77 14.88,10.01 4.24,4.21 7.6,9.13 10.08,14.78 2.48,5.64 3.75,11.68 3.82,18.04 0,1.73 -0.56,3.2 -1.73,4.37 -1.14,1.18 -2.64,1.76 -4.47,1.76l-73.2 0zm66.41 -10.76c-0.52,-4.2 -1.73,-8.09 -3.65,-11.67 -1.89,-3.59 -4.34,-6.72 -7.34,-9.33 -3,-2.64 -6.42,-4.73 -10.27,-6.26 -3.85,-1.53 -7.99,-2.28 -12.39,-2.28 -4.37,0 -8.51,0.78 -12.36,2.35 -3.85,1.53 -7.24,3.66 -10.17,6.33 -2.94,2.67 -5.32,5.8 -7.17,9.39 -1.83,3.59 -3,7.4 -3.43,11.48l66.8 0zm79.05 51.28c-6.42,0 -12.46,-1.21 -18.1,-3.59 -5.64,-2.38 -10.54,-5.64 -14.74,-9.75 -4.17,-4.14 -7.5,-9 -9.95,-14.55 -2.45,-5.58 -3.66,-11.55 -3.66,-17.97 0,-6.49 1.18,-12.59 3.55,-18.3 2.38,-5.74 5.64,-10.73 9.75,-14.97 4.14,-4.27 9.04,-7.63 14.71,-10.11 5.68,-2.48 11.81,-3.72 18.43,-3.72 6,0 11.78,1.05 17.32,3.1 5.55,2.09 10.24,5.09 14.12,9.07 1.53,1.63 2.31,3.42 2.31,5.32 0,1.04 -0.23,1.92 -0.68,2.67 -0.45,0.78 -1.01,1.44 -1.66,1.99 -0.69,0.52 -1.37,0.91 -2.12,1.18 -0.72,0.26 -1.37,0.39 -1.96,0.39 -0.75,0 -1.57,-0.23 -2.42,-0.62 -0.88,-0.43 -1.76,-0.95 -2.64,-1.6 -0.88,-0.62 -1.79,-1.3 -2.67,-1.99 -0.88,-0.68 -1.76,-1.3 -2.58,-1.82 -2.94,-1.83 -5.87,-3.13 -8.81,-3.91 -2.94,-0.75 -6.03,-1.11 -9.36,-1.04 -4.5,0.06 -8.74,1.01 -12.69,2.87 -3.98,1.86 -7.4,4.34 -10.34,7.44 -2.94,3.1 -5.22,6.65 -6.88,10.66 -1.66,4.01 -2.48,8.25 -2.48,12.66 0,4.47 0.82,8.74 2.45,12.82 1.63,4.08 3.88,7.7 6.82,10.83 2.94,3.13 6.43,5.61 10.47,7.47 4.04,1.86 8.48,2.77 13.34,2.77 2.28,0 4.44,-0.2 6.49,-0.59 2.02,-0.36 4.01,-0.98 5.97,-1.79 1.96,-0.85 3.91,-1.89 5.94,-3.16 1.99,-1.27 4.11,-2.77 6.33,-4.5 0.52,-0.23 1.04,-0.45 1.6,-0.62 0.52,-0.16 1.08,-0.23 1.57,-0.23 0.65,0 1.34,0.13 2.06,0.42 0.75,0.29 1.43,0.72 2.05,1.24 0.65,0.56 1.17,1.21 1.57,1.96 0.42,0.78 0.65,1.63 0.65,2.58 0,1.99 -0.78,3.75 -2.31,5.25 -3.88,3.98 -8.58,6.98 -14.12,9.07 -5.54,2.06 -11.32,3.1 -17.32,3.1zm57.85 -114.06c0,-1.79 0.62,-3.33 1.89,-4.6 1.27,-1.27 2.77,-1.89 4.47,-1.89 1.76,0 3.33,0.62 4.6,1.86 1.3,1.24 1.96,2.77 1.96,4.6l0 21.72 42.14 0c1.8,0 3.33,0.65 4.6,1.92 1.27,1.31 1.89,2.84 1.89,4.63 0,1.67 -0.62,3.1 -1.86,4.34 -1.24,1.21 -2.77,1.83 -4.63,1.83l-42.14 0 0 34.21c0,4.67 0.88,8.97 2.64,12.98 1.73,4.01 4.14,7.47 7.21,10.44 3.06,2.97 6.62,5.28 10.73,6.98 4.11,1.66 8.58,2.51 13.34,2.51 4.21,0 8.12,-0.65 11.74,-1.92 3.65,-1.27 7.08,-3.32 10.34,-6.2 0.68,-0.59 1.43,-1.08 2.19,-1.47 0.78,-0.42 1.7,-0.65 2.77,-0.65 1.47,0 2.77,0.62 3.91,1.8 1.14,1.17 1.73,2.58 1.73,4.24 0,0.95 -0.19,1.92 -0.62,2.87 -0.42,0.94 -1.01,1.79 -1.76,2.48 -4.01,3.82 -8.58,6.72 -13.73,8.68 -5.12,1.92 -10.63,2.9 -16.57,2.9 -6.49,0 -12.59,-1.18 -18.3,-3.49 -5.71,-2.32 -10.67,-5.51 -14.88,-9.62 -4.24,-4.11 -7.57,-8.93 -10.01,-14.51 -2.45,-5.54 -3.65,-11.58 -3.65,-18.07l0 -68.56zm142.56 114.26c-6.43,0 -12.43,-1.24 -18.04,-3.69 -5.61,-2.45 -10.47,-5.77 -14.61,-9.98 -4.14,-4.21 -7.44,-9.13 -9.85,-14.78 -2.42,-5.61 -3.62,-11.64 -3.62,-18.1 0,-6.49 1.21,-12.56 3.62,-18.23 2.41,-5.67 5.71,-10.63 9.85,-14.87 4.11,-4.24 8.97,-7.56 14.58,-10.01 5.61,-2.45 11.61,-3.69 18.04,-3.69 6.49,0 12.52,1.24 18.14,3.69 5.58,2.45 10.47,5.77 14.58,9.95 4.14,4.21 7.4,9.17 9.78,14.84 2.38,5.71 3.59,11.81 3.59,18.3l0 39.2c0,1.86 -0.62,3.39 -1.89,4.67 -1.27,1.27 -2.84,1.92 -4.66,1.92 -1.89,0 -3.39,-0.65 -4.5,-1.92 -1.11,-1.27 -1.66,-2.84 -1.66,-4.67l-0.1 -6.88c-4.21,4.4 -9.1,7.86 -14.74,10.43 -5.64,2.55 -11.81,3.82 -18.49,3.82zm-0.03 -12.72c4.79,0 9.2,-0.88 13.28,-2.67 4.11,-1.8 7.6,-4.24 10.57,-7.34 2.97,-3.1 5.32,-6.69 6.98,-10.83 1.69,-4.11 2.54,-8.48 2.54,-13.08 0,-4.63 -0.85,-9.07 -2.54,-13.21 -1.66,-4.14 -4.01,-7.76 -6.98,-10.83 -2.97,-3.07 -6.46,-5.48 -10.57,-7.27 -4.08,-1.79 -8.48,-2.67 -13.28,-2.67 -4.73,0 -9.1,0.88 -13.15,2.67 -4.04,1.79 -7.56,4.21 -10.57,7.27 -3,3.06 -5.35,6.69 -7.08,10.83 -1.73,4.14 -2.58,8.58 -2.58,13.21 0,4.6 0.85,8.97 2.58,13.08 1.73,4.14 4.08,7.73 7.08,10.83 3,3.1 6.53,5.54 10.57,7.34 4.05,1.79 8.42,2.67 13.15,2.67zm70.51 -33.82c0,-6.49 1.24,-12.59 3.68,-18.3 2.45,-5.68 5.81,-10.63 10.05,-14.84 4.24,-4.21 9.17,-7.53 14.81,-9.98 5.64,-2.45 11.71,-3.69 18.13,-3.69 8.61,0 15.62,1.92 21.1,5.77 5.45,3.85 9.72,9.13 12.85,15.82l0 -48.63c0,-1.86 0.59,-3.42 1.76,-4.7 1.17,-1.27 2.71,-1.92 4.56,-1.92 1.76,0 3.3,0.65 4.54,1.92 1.24,1.27 1.86,2.84 1.86,4.66l0 74.37c-0.07,6.33 -1.34,12.29 -3.78,17.91 -2.45,5.61 -5.77,10.5 -9.98,14.65 -4.21,4.14 -9.13,7.44 -14.77,9.85 -5.64,2.45 -11.71,3.66 -18.14,3.66 -6.42,0 -12.49,-1.24 -18.13,-3.69 -5.64,-2.45 -10.57,-5.77 -14.81,-9.98 -4.24,-4.21 -7.6,-9.13 -10.05,-14.78 -2.44,-5.61 -3.68,-11.64 -3.68,-18.1zm12.72 -0.1c0,4.6 0.88,8.97 2.67,13.08 1.8,4.14 4.21,7.73 7.27,10.83 3.07,3.1 6.65,5.54 10.76,7.34 4.11,1.79 8.51,2.67 13.24,2.67 4.79,0 9.23,-0.88 13.41,-2.67 4.14,-1.8 7.73,-4.24 10.73,-7.34 3.03,-3.1 5.45,-6.69 7.18,-10.83 1.76,-4.11 2.64,-8.48 2.64,-13.08 0,-4.63 -0.88,-9.07 -2.64,-13.21 -1.73,-4.14 -4.14,-7.76 -7.18,-10.83 -3,-3.07 -6.59,-5.48 -10.73,-7.27 -4.18,-1.79 -8.61,-2.67 -13.41,-2.67 -4.73,0 -9.13,0.88 -13.24,2.67 -4.11,1.79 -7.7,4.21 -10.76,7.27 -3.07,3.06 -5.48,6.69 -7.27,10.83 -1.79,4.14 -2.67,8.58 -2.67,13.21zm117.18 0c0,4.6 0.88,8.97 2.67,13.08 1.79,4.14 4.21,7.73 7.27,10.83 3.07,3.1 6.65,5.54 10.76,7.34 4.11,1.79 8.51,2.67 13.24,2.67 4.79,0 9.23,-0.88 13.41,-2.67 4.14,-1.8 7.73,-4.24 10.73,-7.34 3.03,-3.1 5.45,-6.69 7.17,-10.83 1.76,-4.11 2.64,-8.48 2.64,-13.08 0,-4.63 -0.88,-9.07 -2.64,-13.21 -1.73,-4.14 -4.14,-7.76 -7.17,-10.83 -3,-3.07 -6.59,-5.48 -10.73,-7.27 -4.17,-1.79 -8.61,-2.67 -13.41,-2.67 -4.73,0 -9.13,0.88 -13.24,2.67 -4.11,1.79 -7.7,4.21 -10.76,7.27 -3.06,3.06 -5.48,6.69 -7.27,10.83 -1.79,4.14 -2.67,8.58 -2.67,13.21zm-12.72 0.1c0,-6.49 1.24,-12.59 3.68,-18.3 2.45,-5.68 5.81,-10.63 10.05,-14.84 4.24,-4.21 9.16,-7.53 14.81,-9.98 5.64,-2.45 11.71,-3.69 18.14,-3.69 6.49,0 12.59,1.24 18.26,3.69 5.68,2.45 10.63,5.77 14.84,10.01 4.21,4.24 7.5,9.2 9.95,14.87 2.41,5.68 3.62,11.74 3.62,18.23 0,6.46 -1.21,12.49 -3.62,18.1 -2.45,5.64 -5.74,10.57 -9.95,14.78 -4.21,4.21 -9.16,7.53 -14.84,9.98 -5.67,2.45 -11.78,3.69 -18.26,3.69 -6.43,0 -12.49,-1.24 -18.14,-3.69 -5.64,-2.45 -10.57,-5.77 -14.81,-9.98 -4.24,-4.21 -7.6,-9.13 -10.05,-14.78 -2.45,-5.61 -3.68,-11.64 -3.68,-18.1z"/>
  </g>
 </g>
</svg>
