<?xml version="1.0" encoding="UTF-8"?>
<!DOCTYPE svg PUBLIC "-//W3C//DTD SVG 1.1//EN" "http://www.w3.org/Graphics/SVG/1.1/DTD/svg11.dtd">
<!-- Creator: CorelDRAW -->
<svg xmlns="http://www.w3.org/2000/svg" xml:space="preserve" width="85.7582mm" height="68.4673mm" version="1.1" style="shape-rendering:geometricPrecision; text-rendering:geometricPrecision; image-rendering:optimizeQuality; fill-rule:evenodd; clip-rule:evenodd"
viewBox="0 0 1115.03 890.21"
 xmlns:xlink="http://www.w3.org/1999/xlink"
 xmlns:xodm="http://www.corel.com/coreldraw/odm/2003">
 <defs>
  <style type="text/css">
   <![CDATA[
    .fil0 {fill:#FF6200}
    .fil1 {fill:white}
    .fil3 {fill:#9BB3D1;fill-rule:nonzero}
    .fil2 {fill:white;fill-rule:nonzero}
   ]]>
  </style>
 </defs>
 <g id="Capa_x0020_1">
  <metadata id="CorelCorpID_0Corel-Layer"/>
  <g id="_2442654695696">
   <g>
    <polygon class="fil0" points="318.02,391.7 436.72,391.7 436.72,510.37 318.02,510.37 "/>
    <polygon class="fil1" points="318.02,370.28 436.72,370.28 436.72,0.96 318.02,0.96 "/>
    <polygon class="fil1" points="436.72,246.17 565.33,246.17 782.85,0 647.14,0 "/>
    <polygon class="fil1" points="499.3,320.89 565.33,246.17 797.01,510.37 657.96,510.37 "/>
   </g>
   <path class="fil2" d="M-0 766.85l34.02 0 0 -56.15 30.15 -30.98 66.11 87.13 41.22 0 -84.09 -110.37 80.49 -83.26 -41.77 0 -92.11 97.37 0 -97.37 -34.02 0 0 193.62zm380.99 3.04c50.62,0 83.26,-29.04 83.26,-86.85l0 -109.81 -34.02 0 0 111.47c0,35.68 -18.53,53.94 -48.68,53.94 -30.43,0 -48.96,-19.36 -48.96,-55.32l0 -110.09 -34.02 0 0 111.47c0,56.15 32.09,85.19 82.43,85.19zm235.22 -3.04l89.62 0c43.15,0 71.64,-18.53 71.64,-53.11l0 -0.55c0,-26.28 -15.77,-39.28 -38.45,-47.02 14.38,-7.47 27.66,-19.92 27.66,-43.15l0 -0.55c0,-13 -4.42,-23.51 -13,-32.09 -11.06,-11.06 -28.49,-17.15 -50.62,-17.15l-86.85 0 0 193.62zm33.47 -112.03l0 -51.45 48.96 0c21.85,0 34.02,9.41 34.02,24.62l0 0.55c0,17.7 -14.66,26.28 -36.51,26.28l-46.47 0zm0 81.88l0 -53.11 53.94 0c26.83,0 39.83,9.68 39.83,26l0 0.55c0,17.43 -14.11,26.55 -37.34,26.55l-56.43 0zm363.84 33.47c59.47,0 101.51,-45.64 101.51,-100.13l0 -0.55c0,-54.49 -41.49,-99.58 -100.96,-99.58 -59.47,0 -101.51,45.64 -101.51,100.13l0 0.55c0,54.49 41.49,99.58 100.96,99.58zm0.55 -31.26c-38.45,0 -65.83,-31.26 -65.83,-68.88l0 -0.55c0,-37.62 26.83,-68.32 65.28,-68.32 38.45,0 65.83,31.26 65.83,68.87l0 0.55c0,37.62 -26.83,68.32 -65.28,68.32z"/>
   <g>
    <path class="fil3" d="M169.08 826.01c-0.21,-0.41 -0.3,-0.87 -0.3,-1.35 0,-0.83 0.32,-1.61 0.97,-2.34 0.66,-0.73 1.51,-1.1 2.55,-1.1 0.65,0.04 1.27,0.23 1.86,0.59 0.59,0.34 1.03,0.85 1.29,1.56l21.65 54.28 21.65 -54.28c0.27,-0.71 0.69,-1.22 1.28,-1.59 0.57,-0.35 1.17,-0.55 1.84,-0.55 1.06,0 1.91,0.35 2.53,1.08 0.62,0.71 0.94,1.47 0.94,2.3 0,0.48 -0.11,0.96 -0.32,1.4l-24.59 61.56c-0.35,0.81 -0.75,1.45 -1.21,1.86 -0.44,0.41 -1.03,0.67 -1.75,0.78l-0.89 0c-1.22,-0.18 -2.11,-0.89 -2.69,-2.13l-24.82 -62.08zm69.62 2.23c0,-1.17 0.39,-2.16 1.19,-2.96 0.8,-0.8 1.79,-1.19 2.96,-1.19 1.19,0 2.18,0.39 2.99,1.19 0.82,0.8 1.22,1.79 1.22,2.96 0,1.13 -0.41,2.11 -1.22,2.92 -0.82,0.82 -1.81,1.22 -2.99,1.22 -1.17,0 -2.16,-0.41 -2.96,-1.22 -0.8,-0.81 -1.19,-1.79 -1.19,-2.92zm0.64 14.72c0,-0.99 0.34,-1.84 1.03,-2.52 0.69,-0.67 1.52,-1.01 2.48,-1.01 0.99,0 1.81,0.34 2.44,1.01 0.64,0.67 0.96,1.52 0.96,2.52l0 43.35c0,0.96 -0.34,1.79 -1.01,2.46 -0.67,0.67 -1.47,1.01 -2.39,1.01 -0.96,0 -1.79,-0.34 -2.48,-1.01 -0.69,-0.67 -1.03,-1.51 -1.03,-2.46l0 -43.35zm20.92 1.51c-0.25,-0.48 -0.37,-0.98 -0.37,-1.49 0,-0.87 0.32,-1.66 0.96,-2.37 0.64,-0.71 1.51,-1.06 2.57,-1.06 0.66,0 1.28,0.18 1.83,0.55 0.55,0.35 0.98,0.89 1.29,1.58l14.9 36.44 14.85 -36.44c0.27,-0.69 0.69,-1.22 1.28,-1.58 0.57,-0.37 1.17,-0.55 1.84,-0.55 1.03,0 1.88,0.35 2.54,1.06 0.66,0.71 0.99,1.51 0.99,2.37 0,0.48 -0.11,0.98 -0.32,1.49l-18 43.3c-0.39,0.62 -0.8,1.13 -1.26,1.52 -0.44,0.41 -1.1,0.6 -1.97,0.6 -0.69,0 -1.33,-0.2 -1.9,-0.6 -0.57,-0.39 -0.99,-0.9 -1.27,-1.52l-17.95 -43.3zm57.94 23.63c0.27,2.16 0.92,4.18 1.93,6.06 1.03,1.88 2.34,3.51 3.93,4.89 1.58,1.4 3.38,2.48 5.42,3.28 2.02,0.8 4.16,1.19 6.41,1.19 1.03,0 1.95,-0.04 2.76,-0.12 0.82,-0.09 1.58,-0.23 2.29,-0.43 0.71,-0.19 1.4,-0.44 2.07,-0.74 0.67,-0.32 1.38,-0.67 2.11,-1.1 0.39,-0.23 0.76,-0.41 1.12,-0.5 0.37,-0.09 0.71,-0.12 1.01,-0.12 0.98,0 1.77,0.39 2.41,1.13 0.64,0.76 0.98,1.59 0.98,2.5 0,0.53 -0.14,1.05 -0.39,1.56 -0.27,0.5 -0.69,0.92 -1.28,1.28 -0.9,0.51 -1.81,0.99 -2.73,1.42 -0.92,0.41 -1.89,0.75 -2.92,1.01 -1.05,0.26 -2.18,0.46 -3.38,0.6 -1.21,0.14 -2.55,0.21 -4.04,0.21 -3.51,0 -6.79,-0.67 -9.87,-2 -3.08,-1.33 -5.78,-3.13 -8.08,-5.42 -2.3,-2.29 -4.11,-4.96 -5.44,-8.04 -1.33,-3.08 -2,-6.36 -2,-9.87 0,-3.49 0.67,-6.77 2,-9.85 1.33,-3.08 3.13,-5.77 5.44,-8.08 2.3,-2.3 5,-4.11 8.08,-5.44 3.08,-1.33 6.36,-2 9.87,-2 3.45,0 6.72,0.67 9.8,2 3.08,1.33 5.78,3.13 8.08,5.44 2.3,2.29 4.13,4.96 5.47,8.03 1.35,3.06 2.04,6.34 2.07,9.8 0,0.94 -0.3,1.74 -0.94,2.37 -0.62,0.64 -1.43,0.96 -2.43,0.96l-39.75 0zm36.07 -5.85c-0.28,-2.28 -0.94,-4.39 -1.98,-6.34 -1.03,-1.95 -2.36,-3.65 -3.99,-5.07 -1.63,-1.44 -3.49,-2.57 -5.58,-3.4 -2.09,-0.83 -4.34,-1.24 -6.73,-1.24 -2.38,0 -4.62,0.42 -6.72,1.27 -2.09,0.83 -3.93,1.99 -5.53,3.44 -1.59,1.45 -2.89,3.15 -3.9,5.1 -0.99,1.95 -1.63,4.02 -1.86,6.23l36.28 0z"/>
    <path class="fil3" d="M445.07 890.11c-3.49,0 -6.77,-0.66 -9.83,-1.95 -3.07,-1.3 -5.72,-3.07 -8.01,-5.3 -2.27,-2.25 -4.07,-4.89 -5.4,-7.9 -1.33,-3.03 -1.99,-6.27 -1.99,-9.76 0,-3.53 0.64,-6.84 1.93,-9.94 1.3,-3.12 3.07,-5.83 5.3,-8.13 2.25,-2.32 4.91,-4.15 7.99,-5.49 3.08,-1.35 6.41,-2.02 10.01,-2.02 3.26,0 6.4,0.57 9.41,1.68 3.01,1.13 5.56,2.76 7.67,4.93 0.83,0.89 1.26,1.86 1.26,2.89 0,0.57 -0.12,1.05 -0.37,1.45 -0.25,0.43 -0.55,0.78 -0.9,1.08 -0.37,0.28 -0.75,0.5 -1.15,0.64 -0.39,0.14 -0.75,0.21 -1.06,0.21 -0.41,0 -0.85,-0.12 -1.31,-0.34 -0.48,-0.23 -0.96,-0.51 -1.44,-0.87 -0.48,-0.34 -0.97,-0.71 -1.45,-1.08 -0.48,-0.37 -0.96,-0.71 -1.4,-0.99 -1.6,-0.99 -3.19,-1.7 -4.78,-2.13 -1.6,-0.41 -3.28,-0.6 -5.09,-0.57 -2.44,0.03 -4.75,0.55 -6.89,1.56 -2.16,1.01 -4.02,2.36 -5.62,4.04 -1.6,1.68 -2.83,3.61 -3.74,5.79 -0.9,2.18 -1.35,4.48 -1.35,6.88 0,2.43 0.44,4.75 1.33,6.96 0.89,2.21 2.11,4.18 3.7,5.88 1.6,1.7 3.49,3.05 5.69,4.06 2.2,1.01 4.61,1.51 7.25,1.51 1.24,0 2.41,-0.11 3.52,-0.32 1.1,-0.2 2.18,-0.53 3.24,-0.97 1.06,-0.46 2.13,-1.03 3.22,-1.72 1.08,-0.69 2.23,-1.51 3.44,-2.45 0.28,-0.12 0.57,-0.25 0.87,-0.34 0.28,-0.09 0.58,-0.12 0.85,-0.12 0.35,0 0.73,0.07 1.12,0.23 0.41,0.16 0.78,0.39 1.11,0.67 0.35,0.3 0.64,0.66 0.85,1.06 0.23,0.42 0.35,0.89 0.35,1.4 0,1.08 -0.42,2.04 -1.26,2.85 -2.11,2.16 -4.66,3.79 -7.67,4.92 -3.01,1.12 -6.15,1.68 -9.41,1.68zm36.4 -25.23c0,2.5 0.48,4.87 1.45,7.1 0.97,2.25 2.29,4.2 3.95,5.88 1.67,1.68 3.61,3.01 5.85,3.99 2.23,0.97 4.62,1.45 7.19,1.45 2.6,0 5.01,-0.48 7.28,-1.45 2.25,-0.98 4.2,-2.3 5.83,-3.99 1.65,-1.68 2.96,-3.63 3.9,-5.88 0.96,-2.23 1.44,-4.61 1.44,-7.1 0,-2.52 -0.48,-4.93 -1.44,-7.18 -0.94,-2.25 -2.25,-4.22 -3.9,-5.88 -1.63,-1.67 -3.58,-2.98 -5.83,-3.95 -2.27,-0.97 -4.68,-1.45 -7.28,-1.45 -2.57,0 -4.96,0.48 -7.19,1.45 -2.23,0.97 -4.18,2.29 -5.85,3.95 -1.66,1.66 -2.98,3.63 -3.95,5.88 -0.97,2.25 -1.45,4.66 -1.45,7.18zm-6.91 0.05c0,-3.52 0.67,-6.84 2,-9.94 1.33,-3.08 3.15,-5.78 5.46,-8.06 2.3,-2.29 4.98,-4.09 8.04,-5.42 3.06,-1.33 6.36,-2 9.85,-2 3.53,0 6.84,0.67 9.92,2 3.08,1.33 5.78,3.13 8.06,5.44 2.29,2.3 4.08,5 5.4,8.08 1.31,3.08 1.97,6.38 1.97,9.9 0,3.51 -0.66,6.79 -1.97,9.83 -1.33,3.06 -3.12,5.74 -5.4,8.03 -2.28,2.29 -4.98,4.09 -8.06,5.42 -3.08,1.33 -6.39,2 -9.92,2 -3.49,0 -6.78,-0.67 -9.85,-2 -3.07,-1.33 -5.74,-3.13 -8.04,-5.42 -2.3,-2.29 -4.13,-4.96 -5.46,-8.03 -1.33,-3.05 -2,-6.32 -2,-9.83zm62.96 -1.1c0,-3.35 0.6,-6.5 1.79,-9.46 1.2,-2.96 2.85,-5.53 4.96,-7.72 2.11,-2.2 4.61,-3.93 7.48,-5.23 2.87,-1.27 5.99,-1.91 9.34,-1.91 3.37,0 6.47,0.64 9.32,1.9 2.87,1.26 5.33,2.99 7.42,5.19 2.11,2.2 3.74,4.77 4.91,7.72 1.19,2.96 1.77,6.11 1.77,9.48l0 22.36c0,0.99 -0.32,1.82 -0.96,2.46 -0.64,0.64 -1.47,0.96 -2.46,0.96 -0.98,0 -1.81,-0.32 -2.48,-0.96 -0.67,-0.64 -1.01,-1.47 -1.01,-2.48l0 -22.14c0,-2.43 -0.41,-4.71 -1.22,-6.84 -0.81,-2.13 -1.95,-3.99 -3.44,-5.58 -1.47,-1.59 -3.21,-2.85 -5.24,-3.77 -2.02,-0.92 -4.23,-1.38 -6.63,-1.38 -2.39,0 -4.61,0.44 -6.63,1.35 -2.04,0.9 -3.79,2.14 -5.28,3.7 -1.49,1.56 -2.66,3.4 -3.49,5.53 -0.83,2.14 -1.24,4.41 -1.24,6.84l0 22.3c0,1.01 -0.3,1.84 -0.92,2.48 -0.62,0.64 -1.43,0.96 -2.43,0.96 -0.94,0 -1.75,-0.32 -2.48,-0.96 -0.73,-0.64 -1.08,-1.47 -1.08,-2.46l0 -22.32zm68.24 4.27c0.27,2.16 0.92,4.18 1.93,6.06 1.03,1.88 2.34,3.51 3.93,4.89 1.58,1.4 3.38,2.48 5.42,3.28 2.02,0.8 4.16,1.19 6.41,1.19 1.03,0 1.95,-0.04 2.76,-0.12 0.82,-0.09 1.58,-0.23 2.29,-0.43 0.71,-0.19 1.4,-0.44 2.07,-0.74 0.67,-0.32 1.38,-0.67 2.11,-1.1 0.39,-0.23 0.76,-0.41 1.12,-0.5 0.37,-0.09 0.71,-0.12 1.01,-0.12 0.98,0 1.77,0.39 2.41,1.13 0.64,0.76 0.98,1.59 0.98,2.5 0,0.53 -0.14,1.05 -0.39,1.56 -0.27,0.5 -0.69,0.92 -1.28,1.28 -0.9,0.51 -1.81,0.99 -2.73,1.42 -0.92,0.41 -1.9,0.75 -2.92,1.01 -1.04,0.26 -2.18,0.46 -3.38,0.6 -1.2,0.14 -2.55,0.21 -4.04,0.21 -3.51,0 -6.78,-0.67 -9.87,-2 -3.08,-1.33 -5.78,-3.13 -8.08,-5.42 -2.3,-2.29 -4.11,-4.96 -5.44,-8.04 -1.33,-3.08 -2,-6.36 -2,-9.87 0,-3.49 0.67,-6.77 2,-9.85 1.33,-3.08 3.14,-5.77 5.44,-8.08 2.3,-2.3 5,-4.11 8.08,-5.44 3.08,-1.33 6.36,-2 9.87,-2 3.45,0 6.72,0.67 9.8,2 3.08,1.33 5.78,3.13 8.08,5.44 2.3,2.29 4.13,4.96 5.47,8.03 1.35,3.06 2.04,6.34 2.07,9.8 0,0.94 -0.3,1.74 -0.94,2.37 -0.62,0.64 -1.43,0.96 -2.43,0.96l-39.76 0zm36.07 -5.85c-0.28,-2.28 -0.94,-4.39 -1.98,-6.34 -1.03,-1.95 -2.36,-3.65 -3.99,-5.07 -1.63,-1.44 -3.49,-2.57 -5.58,-3.4 -2.09,-0.83 -4.34,-1.24 -6.73,-1.24 -2.37,0 -4.62,0.42 -6.72,1.27 -2.09,0.83 -3.93,1.99 -5.53,3.44 -1.6,1.45 -2.89,3.15 -3.9,5.1 -0.99,1.95 -1.63,4.02 -1.86,6.23l36.28 0zm42.94 27.85c-3.49,0 -6.77,-0.66 -9.83,-1.95 -3.07,-1.3 -5.72,-3.07 -8.01,-5.3 -2.27,-2.25 -4.07,-4.89 -5.4,-7.9 -1.33,-3.03 -1.99,-6.27 -1.99,-9.76 0,-3.53 0.64,-6.84 1.93,-9.94 1.3,-3.12 3.07,-5.83 5.3,-8.13 2.25,-2.32 4.91,-4.15 7.99,-5.49 3.08,-1.35 6.41,-2.02 10.01,-2.02 3.26,0 6.4,0.57 9.41,1.68 3.01,1.13 5.56,2.76 7.67,4.93 0.83,0.89 1.26,1.86 1.26,2.89 0,0.57 -0.12,1.05 -0.37,1.45 -0.25,0.43 -0.55,0.78 -0.9,1.08 -0.37,0.28 -0.75,0.5 -1.15,0.64 -0.39,0.14 -0.75,0.21 -1.06,0.21 -0.41,0 -0.85,-0.12 -1.31,-0.34 -0.48,-0.23 -0.96,-0.51 -1.44,-0.87 -0.48,-0.34 -0.97,-0.71 -1.45,-1.08 -0.48,-0.37 -0.96,-0.71 -1.4,-0.99 -1.6,-0.99 -3.19,-1.7 -4.78,-2.13 -1.6,-0.41 -3.28,-0.6 -5.09,-0.57 -2.44,0.03 -4.75,0.55 -6.89,1.56 -2.16,1.01 -4.02,2.36 -5.62,4.04 -1.6,1.68 -2.83,3.61 -3.74,5.79 -0.9,2.18 -1.35,4.48 -1.35,6.88 0,2.43 0.44,4.75 1.33,6.96 0.89,2.21 2.11,4.18 3.7,5.88 1.6,1.7 3.49,3.05 5.69,4.06 2.2,1.01 4.61,1.51 7.25,1.51 1.24,0 2.41,-0.11 3.52,-0.32 1.1,-0.2 2.18,-0.53 3.24,-0.97 1.06,-0.46 2.13,-1.03 3.22,-1.72 1.08,-0.69 2.23,-1.51 3.44,-2.45 0.28,-0.12 0.57,-0.25 0.87,-0.34 0.28,-0.09 0.59,-0.12 0.85,-0.12 0.35,0 0.73,0.07 1.12,0.23 0.41,0.16 0.78,0.39 1.12,0.67 0.35,0.3 0.64,0.66 0.85,1.06 0.23,0.42 0.35,0.89 0.35,1.4 0,1.08 -0.42,2.04 -1.26,2.85 -2.11,2.16 -4.66,3.79 -7.67,4.92 -3.01,1.12 -6.15,1.68 -9.41,1.68zm31.42 -61.95c0,-0.97 0.34,-1.81 1.03,-2.5 0.69,-0.69 1.51,-1.03 2.43,-1.03 0.96,0 1.81,0.34 2.5,1.01 0.71,0.67 1.06,1.51 1.06,2.5l0 11.8 22.89 0c0.98,0 1.81,0.35 2.5,1.05 0.69,0.71 1.03,1.54 1.03,2.52 0,0.9 -0.34,1.68 -1.01,2.36 -0.67,0.66 -1.51,0.99 -2.52,0.99l-22.89 0 0 18.58c0,2.54 0.48,4.87 1.44,7.05 0.94,2.18 2.25,4.06 3.92,5.67 1.66,1.61 3.6,2.87 5.83,3.79 2.23,0.9 4.66,1.36 7.24,1.36 2.29,0 4.41,-0.35 6.38,-1.05 1.98,-0.69 3.84,-1.81 5.62,-3.37 0.37,-0.32 0.78,-0.59 1.19,-0.8 0.43,-0.23 0.92,-0.35 1.51,-0.35 0.8,0 1.51,0.34 2.13,0.98 0.62,0.64 0.94,1.4 0.94,2.3 0,0.51 -0.11,1.05 -0.34,1.56 -0.23,0.51 -0.55,0.97 -0.96,1.35 -2.18,2.07 -4.66,3.65 -7.46,4.71 -2.78,1.04 -5.77,1.58 -9,1.58 -3.52,0 -6.84,-0.64 -9.94,-1.9 -3.1,-1.26 -5.79,-2.99 -8.08,-5.23 -2.3,-2.23 -4.11,-4.85 -5.44,-7.88 -1.33,-3.01 -1.98,-6.29 -1.98,-9.81l0 -37.24zm77.43 62.06c-3.49,0 -6.75,-0.67 -9.8,-2 -3.05,-1.33 -5.69,-3.13 -7.94,-5.42 -2.25,-2.29 -4.04,-4.96 -5.35,-8.03 -1.31,-3.05 -1.97,-6.32 -1.97,-9.83 0,-3.52 0.66,-6.82 1.97,-9.9 1.31,-3.08 3.1,-5.77 5.35,-8.08 2.23,-2.3 4.87,-4.11 7.92,-5.44 3.05,-1.33 6.31,-2 9.8,-2 3.52,0 6.8,0.67 9.85,2 3.03,1.33 5.69,3.13 7.92,5.4 2.25,2.29 4.02,4.98 5.31,8.06 1.29,3.1 1.95,6.41 1.95,9.94l0 21.29c0,1.01 -0.34,1.84 -1.03,2.53 -0.69,0.69 -1.54,1.05 -2.53,1.05 -1.03,0 -1.84,-0.35 -2.45,-1.05 -0.6,-0.69 -0.9,-1.54 -0.9,-2.53l-0.05 -3.74c-2.28,2.39 -4.94,4.27 -8.01,5.67 -3.07,1.38 -6.41,2.07 -10.04,2.07zm-0.02 -6.91c2.6,0 5,-0.48 7.21,-1.45 2.23,-0.98 4.13,-2.3 5.74,-3.99 1.61,-1.68 2.89,-3.63 3.79,-5.88 0.92,-2.23 1.38,-4.61 1.38,-7.1 0,-2.52 -0.46,-4.93 -1.38,-7.18 -0.9,-2.25 -2.18,-4.22 -3.79,-5.88 -1.61,-1.67 -3.51,-2.98 -5.74,-3.95 -2.22,-0.97 -4.61,-1.45 -7.21,-1.45 -2.57,0 -4.94,0.48 -7.14,1.45 -2.19,0.97 -4.11,2.29 -5.74,3.95 -1.63,1.66 -2.9,3.63 -3.84,5.88 -0.94,2.25 -1.4,4.66 -1.4,7.18 0,2.5 0.46,4.87 1.4,7.1 0.94,2.25 2.21,4.2 3.84,5.88 1.63,1.68 3.54,3.01 5.74,3.99 2.2,0.97 4.57,1.45 7.14,1.45zm38.3 -18.37c0,-3.52 0.67,-6.84 2,-9.94 1.33,-3.08 3.15,-5.78 5.46,-8.06 2.3,-2.29 4.98,-4.09 8.04,-5.42 3.06,-1.33 6.36,-2 9.85,-2 4.68,0 8.49,1.05 11.46,3.14 2.96,2.09 5.28,4.96 6.98,8.59l0 -26.41c0,-1.01 0.32,-1.86 0.96,-2.55 0.64,-0.69 1.47,-1.05 2.48,-1.05 0.96,0 1.79,0.35 2.46,1.05 0.67,0.69 1.01,1.54 1.01,2.53l0 40.39c-0.04,3.44 -0.73,6.68 -2.06,9.73 -1.33,3.05 -3.14,5.7 -5.42,7.95 -2.28,2.25 -4.96,4.04 -8.02,5.35 -3.06,1.33 -6.36,1.99 -9.85,1.99 -3.49,0 -6.78,-0.67 -9.85,-2 -3.07,-1.33 -5.74,-3.13 -8.04,-5.42 -2.3,-2.29 -4.13,-4.96 -5.46,-8.03 -1.33,-3.05 -2,-6.32 -2,-9.83zm6.91 -0.05c0,2.5 0.48,4.87 1.45,7.1 0.98,2.25 2.29,4.2 3.95,5.88 1.67,1.68 3.61,3.01 5.85,3.99 2.23,0.97 4.62,1.45 7.19,1.45 2.6,0 5.01,-0.48 7.28,-1.45 2.25,-0.98 4.2,-2.3 5.83,-3.99 1.65,-1.68 2.96,-3.63 3.9,-5.88 0.96,-2.23 1.44,-4.61 1.44,-7.1 0,-2.52 -0.48,-4.93 -1.44,-7.18 -0.94,-2.25 -2.25,-4.22 -3.9,-5.88 -1.63,-1.67 -3.58,-2.98 -5.83,-3.95 -2.27,-0.97 -4.68,-1.45 -7.28,-1.45 -2.57,0 -4.96,0.48 -7.19,1.45 -2.23,0.97 -4.18,2.29 -5.85,3.95 -1.67,1.66 -2.98,3.63 -3.95,5.88 -0.97,2.25 -1.45,4.66 -1.45,7.18zm63.65 0c0,2.5 0.48,4.87 1.45,7.1 0.97,2.25 2.29,4.2 3.95,5.88 1.67,1.68 3.61,3.01 5.85,3.99 2.23,0.97 4.62,1.45 7.19,1.45 2.6,0 5.01,-0.48 7.28,-1.45 2.25,-0.98 4.2,-2.3 5.83,-3.99 1.65,-1.68 2.96,-3.63 3.9,-5.88 0.96,-2.23 1.44,-4.61 1.44,-7.1 0,-2.52 -0.48,-4.93 -1.44,-7.18 -0.94,-2.25 -2.25,-4.22 -3.9,-5.88 -1.63,-1.67 -3.58,-2.98 -5.83,-3.95 -2.27,-0.97 -4.68,-1.45 -7.28,-1.45 -2.57,0 -4.96,0.48 -7.19,1.45 -2.23,0.97 -4.18,2.29 -5.85,3.95 -1.66,1.66 -2.98,3.63 -3.95,5.88 -0.97,2.25 -1.45,4.66 -1.45,7.18zm-6.91 0.05c0,-3.52 0.67,-6.84 2,-9.94 1.33,-3.08 3.15,-5.78 5.46,-8.06 2.3,-2.29 4.98,-4.09 8.04,-5.42 3.06,-1.33 6.36,-2 9.85,-2 3.52,0 6.84,0.67 9.92,2 3.08,1.33 5.78,3.13 8.06,5.44 2.29,2.3 4.08,5 5.4,8.08 1.31,3.08 1.97,6.38 1.97,9.9 0,3.51 -0.66,6.79 -1.97,9.83 -1.33,3.06 -3.12,5.74 -5.4,8.03 -2.28,2.29 -4.98,4.09 -8.06,5.42 -3.08,1.33 -6.4,2 -9.92,2 -3.49,0 -6.79,-0.67 -9.85,-2 -3.07,-1.33 -5.74,-3.13 -8.04,-5.42 -2.3,-2.29 -4.13,-4.96 -5.46,-8.03 -1.33,-3.05 -2,-6.32 -2,-9.83z"/>
   </g>
  </g>
 </g>
</svg>
